<svg xmlns="http://www.w3.org/2000/svg" viewBox="0 0 36 24"><defs><style>.cls-1{fill:#0073a5;}.cls-2{fill:#fff;}</style></defs><title>cashondelivery</title><g id="Layer_2" data-name="Layer 2"><g id="Layer_1-2" data-name="Layer 1"><path class="cls-1" d="M33,0H3A3,3,0,0,0,0,3V21a3,3,0,0,0,3,3H33a3,3,0,0,0,3-3V3a3,3,0,0,0-3-3Z"/><path class="cls-2" d="M28.66,3H12.88a2,2,0,0,0-2,2v5.35l1-.4V8.08A4.3,4.3,0,0,0,16.23,4h9.07a4.3,4.3,0,0,0,4.32,4.08v3a4.29,4.29,0,0,0-4.32,4H13.4a5,5,0,0,0-.69.38c-.19.13-.2.23-.18.35a.29.29,0,0,0,.12.18,1.5,1.5,0,0,0,.59.09H28.66a2,2,0,0,0,2-2V5A2,2,0,0,0,28.66,3ZM11.91,7.08V5a1,1,0,0,1,1-1h2.34A3.29,3.29,0,0,1,11.91,7.08Zm17.72,7.1a1,1,0,0,1-1,1H26.32a3.29,3.29,0,0,1,3.31-3Zm0-7.89v.79A3.31,3.31,0,0,1,26.32,4h2.34a1,1,0,0,1,1,1Z"/><path class="cls-2" d="M11.26,16.33A1.37,1.37,0,0,1,12,14.6l4.23-2.1c.79-.54,1.23-1.37.35-2.25s-2.87.1-2.87.1l-8.33,3.2c-.44.17-.91.27-.95.85v5a.51.51,0,0,0,.44.5l9.46,1.44a2.14,2.14,0,0,0,1.59-.24l6.68-3.75H13S11.56,17.36,11.26,16.33Z"/><circle class="cls-2" cx="20.77" cy="9.57" r="1.62"/></g></g></svg>