
<svg xmlns="http://www.w3.org/2000/svg" viewBox="0 0 36 24" fill="none" xmlns:v="https://vecta.io/nano"><rect x="1" y="1" width="34" height="22" rx="2" fill="#fff"/><path fill-rule="evenodd" d="M3 0h30a3.01 3.01 0 0 1 3 3v18a3.01 3.01 0 0 1-3 3H3a3.01 3.01 0 0 1-3-3V3a3.01 3.01 0 0 1 3-3zm32 3c-.001-1.104-.896-1.999-2-2H3c-1.104.001-1.999.896-2 2v18c.001 1.104.896 1.999 2 2h30c1.104-.001 1.999-.896 2-2V3z" fill="#ddd"/><g fill="#fd6000"><path d="M5.179 8.11v-.527l2.2-2.751.445-.51H5.428v-.507h3.076v.507L6.093 7.302l-.261.302h2.742v.507H5.179z"/><path d="M11.153 7.726c-.195.166-.384.283-.566.352s-.373.103-.58.103c-.342 0-.604-.083-.788-.249a.83.83 0 0 1-.275-.642c0-.152.034-.291.103-.416s.161-.229.272-.305a1.3 1.3 0 0 1 .381-.173c.104-.027.26-.054.469-.079.426-.051.739-.111.94-.182l.003-.138c0-.215-.05-.366-.149-.454-.135-.119-.335-.179-.601-.179-.248 0-.432.044-.551.132s-.204.239-.261.46l-.516-.07a1.27 1.27 0 0 1 .231-.533 1 1 0 0 1 .466-.313c.203-.074.438-.111.706-.111s.482.031.647.094.288.142.366.237.133.213.164.357c.018.09.026.252.026.486v.703l.032.932a1.2 1.2 0 0 0 .135.372h-.551c-.055-.109-.09-.237-.105-.384zm-.044-1.178c-.191.078-.479.145-.861.199-.217.031-.37.066-.46.105s-.159.097-.208.173-.073.157-.073.249a.45.45 0 0 0 .158.352c.107.094.264.141.469.141a1.09 1.09 0 0 0 .542-.132.83.83 0 0 0 .349-.366c.057-.119.085-.295.085-.527v-.193zm1.354 2.754V4.999h.48v.404a1.16 1.16 0 0 1 .384-.354c.143-.078.315-.12.518-.12a1.23 1.23 0 0 1 .703.205c.203.137.356.33.46.58a2.1 2.1 0 0 1 .155.817c0 .318-.058.605-.173.861a1.29 1.29 0 0 1-.498.586c-.217.135-.445.202-.686.202a1 1 0 0 1-.475-.111 1.08 1.08 0 0 1-.343-.281v1.515h-.527zm.478-2.73c0 .4.081.696.243.888s.358.287.589.287.435-.099.601-.296.252-.507.252-.923c0-.396-.082-.693-.246-.891s-.356-.296-.583-.296-.424.105-.598.316-.258.514-.258.914z"/><path d="M15.797 6.428l-.381.322v-.463l.381-.322v-2.15h.524V5.52l.395-.337v.46l-.395.337v2.13h-.524V6.428zm3.372 1.298c-.195.166-.384.283-.566.352s-.373.103-.58.103c-.342 0-.604-.083-.788-.249a.83.83 0 0 1-.275-.642c0-.152.034-.291.103-.416s.161-.229.272-.305a1.3 1.3 0 0 1 .381-.173c.104-.027.26-.054.469-.079.426-.051.739-.111.94-.182l.003-.138c0-.215-.05-.366-.149-.454-.135-.119-.335-.179-.601-.179-.248 0-.432.044-.551.132s-.204.239-.261.46l-.516-.07c.047-.221.124-.398.232-.533a1 1 0 0 1 .466-.313 2.06 2.06 0 0 1 .706-.111c.267 0 .481.031.647.094s.288.142.366.237a.82.82 0 0 1 .164.357 2.98 2.98 0 0 1 .026.486v.703l.032.932a1.2 1.2 0 0 0 .135.372h-.551a1.12 1.12 0 0 1-.105-.384zm-.044-1.178c-.191.078-.479.145-.861.199-.217.031-.37.066-.46.105s-.159.097-.208.173-.073.157-.073.249a.45.45 0 0 0 .158.352c.107.094.264.141.469.141a1.09 1.09 0 0 0 .542-.132.83.83 0 0 0 .349-.366c.057-.119.085-.295.085-.527v-.193zm3.383.422l.519.067c-.057.357-.202.638-.437.841s-.519.302-.858.302c-.426 0-.769-.139-1.028-.416s-.387-.679-.387-1.198c0-.336.056-.63.167-.882a1.16 1.16 0 0 1 .507-.565 1.51 1.51 0 0 1 .744-.19c.338 0 .614.086.829.258s.352.412.413.727l-.513.079c-.049-.209-.136-.366-.261-.472s-.272-.158-.448-.158c-.266 0-.482.096-.648.287s-.249.49-.249.902c0 .418.08.722.24.911a.78.78 0 0 0 .627.284.74.74 0 0 0 .519-.19c.139-.127.226-.322.264-.586zm-1.184-2.358l.39-.82h.691l-.645.82h-.437zM5.455 15.303v-4.304h.48v.404a1.16 1.16 0 0 1 .384-.354c.143-.078.315-.12.519-.12a1.23 1.23 0 0 1 .703.205c.203.137.356.33.46.58a2.1 2.1 0 0 1 .155.817c0 .318-.058.605-.173.861a1.29 1.29 0 0 1-.498.586 1.28 1.28 0 0 1-.686.202 1 1 0 0 1-.475-.111 1.08 1.08 0 0 1-.343-.281v1.515h-.527zm.478-2.731c0 .4.081.696.243.888s.358.287.589.287.435-.099.601-.296.252-.507.252-.923c0-.396-.082-.693-.246-.891s-.356-.296-.583-.296-.424.105-.598.316-.258.514-.258.914zm2.665-.018c0-.576.16-1.003.48-1.28.268-.231.594-.346.979-.346.428 0 .777.141 1.049.422s.407.666.407 1.16c0 .4-.06.716-.182.946s-.294.406-.524.533a1.52 1.52 0 0 1-.75.19c-.436 0-.788-.14-1.058-.419s-.401-.682-.401-1.207zm.542 0c0 .399.087.697.261.897a.83.83 0 0 0 .656.296.83.83 0 0 0 .653-.299c.174-.199.261-.503.261-.911 0-.385-.088-.676-.264-.873s-.391-.299-.65-.299-.482.099-.656.296-.261.495-.261.893zm.624-1.942l.39-.82h.691l-.645.82h-.437zm2.092 3.498v-.428l1.98-2.274-.595.018h-1.268v-.428h2.543v.349l-1.684 1.975-.325.36.665-.026h1.438v.454h-2.754zm1.028-3.498l.39-.82h.692l-.645.82h-.437zm2.25 3.498v-3.111h.475v.442c.229-.342.559-.513.99-.513.188 0 .359.034.516.103s.276.154.355.264.133.239.164.39c.02.098.029.269.029.513v1.913h-.527v-1.893c0-.215-.021-.375-.062-.48s-.114-.192-.22-.255a.7.7 0 0 0-.366-.097.86.86 0 0 0-.583.214c-.162.143-.243.413-.243.812v1.699h-.527zm3.343-3.688v-.606h.527v.606h-.527zm0 3.688v-3.111h.527v3.111h-.527zm3.463-1.002l.545.067c-.086.318-.245.566-.478.741s-.529.264-.891.264c-.455 0-.816-.14-1.084-.419s-.398-.675-.398-1.181c0-.523.135-.93.404-1.219s.619-.434 1.049-.434c.416 0 .756.142 1.02.425s.396.682.396 1.195l-.003.141h-2.32c.02.342.116.604.29.785s.391.272.65.272a.81.81 0 0 0 .495-.152c.137-.101.245-.264.325-.486zm-1.732-.853h1.737c-.023-.262-.09-.458-.199-.589a.81.81 0 0 0-.653-.305c-.242 0-.446.081-.612.243s-.255.379-.273.65zm2.939-1.827v-.612h.527v.612h-.527zm-.668 4.89l.1-.448a1.07 1.07 0 0 0 .249.041c.107 0 .188-.036.24-.108s.079-.248.079-.533V11h.527v3.281c0 .383-.05.649-.149.8-.127.195-.338.293-.633.293a1.53 1.53 0 0 1-.413-.056z"/></g><path fill="#ddd" d="M5 17.242h26v2H5z"/></svg>
