<svg xmlns="http://www.w3.org/2000/svg" viewBox="0 0 36 24"><defs><style>.cls-1{fill:#fff;}.cls-2{fill:#ddd;}.cls-3,.cls-4{fill:#d13239;}.cls-3,.cls-5{fill-rule:evenodd;}.cls-5{fill:#b3b2b1;}</style></defs><title>przelewy</title><g id="Layer_2" data-name="Layer 2"><g id="Layer_1-2" data-name="Layer 1"><rect class="cls-1" x="1" y="1" width="34" height="22" rx="2" ry="2"/><path class="cls-2" d="M33,1a2,2,0,0,1,2,2V21a2,2,0,0,1-2,2H3a2,2,0,0,1-2-2V3A2,2,0,0,1,3,1H33m0-1H3A3.009,3.009,0,0,0,0,3V21a3.009,3.009,0,0,0,3,3H33a3.009,3.009,0,0,0,3-3V3a3.009,3.009,0,0,0-3-3Z"/><polygon class="cls-3" points="9.606 12.674 12.024 12.671 11.936 13.221 9.913 15.152 11.61 15.149 11.512 15.743 9.013 15.743 9.117 15.13 11.056 13.274 9.509 13.274 9.606 12.674 9.606 12.674"/><path class="cls-3" d="M6.962,11.733A.587.587,0,0,0,6.75,11.6a1.463,1.463,0,0,0-.281-.075,2.631,2.631,0,0,0-.321-.034c-.077,0-.126,0-.126,0H4.178l-.707,4.255h.658l.26-1.577,1.276.006a1.962,1.962,0,0,0,.85-.167,1,1,0,0,0,.446-.612s.039-.158.071-.35c.035-.211.07-.465.089-.6l.013-.1a.684.684,0,0,0,.009-.112.767.767,0,0,0-.087-.373A.623.623,0,0,0,6.962,11.733Zm-.508.751c0,.007-.058.349-.136.754a.339.339,0,0,1-.285.267,2.22,2.22,0,0,1-.468.039l-1.067,0,.234-1.414.967,0s.065,0,.157,0a3.309,3.309,0,0,1,.354.022.364.364,0,0,1,.2.063.264.264,0,0,1,.05.14A.523.523,0,0,1,6.454,12.484Z"/><polygon class="cls-3" points="15.301 11.488 15.935 11.487 15.225 15.744 14.59 15.743 15.301 11.488 15.301 11.488"/><polygon class="cls-3" points="18.684 12.674 19.292 12.673 19.506 14.833 20.44 12.669 21.19 12.671 21.411 14.842 22.346 12.673 22.976 12.673 21.637 15.741 20.889 15.742 20.673 13.593 19.728 15.742 18.992 15.744 18.684 12.674 18.684 12.674"/><path class="cls-4" d="M14.131,12.7a2.739,2.739,0,0,0-.746-.066,2.306,2.306,0,0,0-.462.035,1.229,1.229,0,0,0-.7.38,2.448,2.448,0,0,0-.33,1.005,4.79,4.79,0,0,0-.107,1.017.678.678,0,0,0,.411.6,1.558,1.558,0,0,0,.532.106,3.506,3.506,0,0,0,.9-.051,1.1,1.1,0,0,0,.591-.364,1.543,1.543,0,0,0,.156-.257,1.175,1.175,0,0,0,.088-.249l.041-.165h-.657s-.036.434-.391.474a3.431,3.431,0,0,1-.613.022c-.068,0-.448.013-.417-.3v-.019a1.646,1.646,0,0,1,.058-.456l2.064-.006.088-.51C14.734,13.313,14.66,12.872,14.131,12.7Zm-.138,1.119-1.414,0,.056-.224a.562.562,0,0,1,.147-.251.647.647,0,0,1,.342-.1,2.559,2.559,0,0,1,.686.019A.234.234,0,0,1,14,13.4,1.071,1.071,0,0,1,13.994,13.818Z"/><path class="cls-4" d="M12.424,14.869l0,.014C12.422,14.908,12.425,14.868,12.424,14.869Z"/><path class="cls-4" d="M16.317,14.87l0,.014C16.315,14.909,16.318,14.869,16.317,14.87Z"/><path class="cls-4" d="M18.024,12.7a2.738,2.738,0,0,0-.746-.066,2.3,2.3,0,0,0-.462.035,1.23,1.23,0,0,0-.7.38,2.448,2.448,0,0,0-.33,1.005,4.791,4.791,0,0,0-.107,1.017.678.678,0,0,0,.411.6,1.557,1.557,0,0,0,.532.106,3.511,3.511,0,0,0,.9-.051,1.1,1.1,0,0,0,.591-.364,1.543,1.543,0,0,0,.156-.257,1.183,1.183,0,0,0,.088-.249l.041-.165h-.658s-.036.434-.391.474a3.438,3.438,0,0,1-.613.022c-.068,0-.448.013-.418-.3v-.02a1.646,1.646,0,0,1,.058-.456l2.064-.006.088-.51C18.627,13.314,18.553,12.873,18.024,12.7Zm-.143,1.117H16.467l.056-.225a.561.561,0,0,1,.147-.25.646.646,0,0,1,.342-.1,2.561,2.561,0,0,1,.686.019.234.234,0,0,1,.186.136A1.069,1.069,0,0,1,17.881,13.818Z"/><path class="cls-3" d="M23.706,12.674l.406,2.244,1.149-2.246.646.006-1.656,3.208a3.383,3.383,0,0,1-.485.728.834.834,0,0,1-.451.228,1.059,1.059,0,0,1-.359,0l-.154-.027.1-.573a.932.932,0,0,0,.408-.012c.152-.06.276-.32.276-.32l.077-.13-.6-3.106Z"/><path class="cls-5" d="M26.141,12.979h.666l.04-.259s.071-.466.23-.556a.745.745,0,0,1,.227-.073,3.01,3.01,0,0,1,.576-.027c.277.01.381.012.663.045a.233.233,0,0,1,.21.3l-.055.406a.98.98,0,0,1-.089.3.583.583,0,0,1-.305.2c-.219.072-.971.262-.971.262l-.591.17a1.412,1.412,0,0,0-.566.33,1.35,1.35,0,0,0-.312.614c-.028.133-.184,1.053-.184,1.053h3.187l.106-.637-2.521,0,.045-.26s.029-.268.138-.355a.559.559,0,0,1,.252-.136c.12-.043.531-.152.531-.152l.951-.259a1.52,1.52,0,0,0,.723-.417,2.316,2.316,0,0,0,.283-.825,3.44,3.44,0,0,0,.013-.692A.741.741,0,0,0,29,11.566a2.068,2.068,0,0,0-.962-.126,3.28,3.28,0,0,0-1.148.142.92.92,0,0,0-.565.576,3.859,3.859,0,0,0-.186.822Z"/><path class="cls-5" d="M32.141,14.163l.446-2.676H31.8l-2.464,2.646-.112.67h2.155l-.158.94h.661l.156-.941h.611l.11-.642Zm-.658,0-1.393,0,1.7-1.807Z"/><path class="cls-5" d="M8.359,11.837h2.029s.455-.368.778-.6.91-.608.91-.608l-1.146-.536s-.969.6-1.38.883c-.4.261-1.191.865-1.191.865Z"/><path class="cls-5" d="M12.721,10.246l-.941-.634a17.851,17.851,0,0,1,1.984-.935C14.9,8.226,15.5,8.038,15.5,8.038l.191.9s-1.09.364-1.715.66a10.89,10.89,0,0,0-1.255.651Z"/><path class="cls-5" d="M16.387,8.738l-.163-.92s1.162-.309,2.226-.507,2.477-.292,2.477-.292L20.46,8.441a10.285,10.285,0,0,0-2.407-.011,13.5,13.5,0,0,0-1.665.309Z"/><path class="cls-5" d="M21.2,8.561l.786-1.579a21.858,21.858,0,0,1,3.2.2,21.981,21.981,0,0,1,2.811.6L24.235,9.743a9.34,9.34,0,0,0-1.971-.9c-.618-.18-1.068-.284-1.068-.284Z"/><path class="cls-5" d="M24.91,10.172l.827.627h6.8a1.345,1.345,0,0,0-.195-.532,3.434,3.434,0,0,0-.534-.616,5.674,5.674,0,0,0-.626-.474,10.015,10.015,0,0,0-1.557-.823L24.91,10.172Z"/><path class="cls-4" d="M8.8,12.671a1.491,1.491,0,0,0-.7.213l.036-.213H7.457l-.541,3.056h.676l.3-1.693a.865.865,0,0,1,.82-.768h.35l.105-.594Z"/></g></g></svg>